<svg width="72" height="72" viewBox="0 0 72 72" fill="none" xmlns="http://www.w3.org/2000/svg">
<path fill-rule="evenodd" clip-rule="evenodd" d="M21.2002 0.468901C25.0267 0.293514 26.2464 0.253662 35.9899 0.253662C45.7353 0.253662 46.9531 0.295503 50.7775 0.468901C54.598 0.642298 57.2069 1.25015 59.4888 2.137C61.8822 3.0381 64.0502 4.44997 65.8422 6.27438C67.6669 8.06617 69.079 10.2344 69.9797 12.6279C70.8664 14.9098 71.4724 17.5186 71.6478 21.3371C71.8233 25.1636 71.863 26.3832 71.863 36.1268C71.863 45.8702 71.8213 47.0899 71.6478 50.9166C71.4743 54.7348 70.8664 57.3438 69.9797 59.6256C69.063 61.9835 67.8351 63.9862 65.8422 65.9791C64.0505 67.8037 61.8822 69.2158 59.4888 70.1166C57.2069 71.0033 54.598 71.6092 50.7798 71.7847C46.9531 71.9601 45.7334 71.9999 35.9899 71.9999C26.2464 71.9999 25.0267 71.9582 21.2002 71.7847C17.3818 71.6112 14.773 71.0033 12.491 70.1166C10.1334 69.1998 8.13047 67.972 6.13752 65.9791C4.31279 64.1874 2.90082 62.019 2.00014 59.6256C1.1133 57.3438 0.507432 54.7348 0.332045 50.9166C0.156658 47.0899 0.116806 45.8722 0.116806 36.1268C0.116806 26.3813 0.158647 25.1636 0.332045 21.3391C0.505442 17.5186 1.1133 14.9098 2.00014 12.6279C2.90124 10.2346 4.31311 8.06644 6.13752 6.27438C7.92929 4.44964 10.0975 3.03768 12.491 2.137C14.773 1.25015 17.3818 0.644288 21.2002 0.468901ZM50.4866 6.92606C46.7039 6.75465 45.568 6.71679 35.9899 6.71679C26.4118 6.71679 25.2758 6.75465 21.4932 6.92606C17.9956 7.0855 16.0963 7.66942 14.8327 8.1617C13.1587 8.81139 11.9629 9.58863 10.7073 10.8442C9.4538 12.0997 8.67453 13.2955 8.02484 14.9696C7.53256 16.2331 6.94865 18.1324 6.78921 21.6301C6.6178 25.4127 6.57994 26.5487 6.57994 36.1268C6.57994 45.7049 6.6178 46.8408 6.78921 50.6234C6.94865 54.1211 7.53256 56.0204 8.02484 57.2841C8.59953 58.8423 9.51618 60.2518 10.7073 61.4095C11.8647 62.6005 13.2744 63.5172 14.8327 64.0918C16.0963 64.5843 17.9956 65.168 21.4932 65.3275C25.2758 65.499 26.4098 65.5369 35.9899 65.5369C45.57 65.5369 46.7039 65.499 50.4866 65.3275C53.9842 65.168 55.8835 64.5843 57.1472 64.0918C58.8212 63.4422 60.0171 62.6651 61.2726 61.4095C62.4636 60.2521 63.3804 58.8423 63.955 57.2841C64.4474 56.0204 65.0312 54.1211 65.1906 50.6234C65.3622 46.8408 65.4 45.7049 65.4 36.1268C65.4 26.5487 65.3622 25.4127 65.1906 21.6301C65.0312 18.1324 64.4474 16.2331 63.955 14.9696C63.3053 13.2955 62.5282 12.0997 61.2726 10.8442C60.0171 9.59065 58.8212 8.81139 57.1472 8.1617C55.8835 7.66942 53.9842 7.0855 50.4866 6.92606ZM31.4096 47.1852C32.8618 47.7868 34.418 48.0963 35.9899 48.0963C39.1647 48.0963 42.209 46.8352 44.4537 44.5906C46.6987 42.3459 47.9598 39.3012 47.9598 36.1268C47.9598 32.9523 46.6987 29.9077 44.4537 27.6629C42.209 25.4182 39.1647 24.1571 35.9899 24.1571C34.418 24.1571 32.8618 24.4667 31.4096 25.0682C29.957 25.6698 28.6377 26.5514 27.5262 27.6629C26.4147 28.7744 25.533 30.0939 24.9315 31.5461C24.33 32.9983 24.0204 34.5549 24.0204 36.1268C24.0204 37.6987 24.33 39.2552 24.9315 40.7075C25.533 42.1597 26.4147 43.4791 27.5262 44.5906C28.6377 45.702 29.957 46.5838 31.4096 47.1852ZM22.9518 23.0886C26.4098 19.6306 31.0998 17.688 35.9899 17.688C40.8804 17.688 45.5703 19.6306 49.0282 23.0886C52.486 26.5465 54.4287 31.2366 54.4287 36.1268C54.4287 41.0169 52.486 45.7069 49.0282 49.165C45.5703 52.6229 40.8804 54.5656 35.9899 54.5656C31.0998 54.5656 26.4098 52.6229 22.9518 49.165C19.4939 45.7069 17.5512 41.0169 17.5512 36.1268C17.5512 31.2366 19.4939 26.5465 22.9518 23.0886ZM58.5173 20.4352C59.3345 19.6177 59.7937 18.5091 59.7937 17.3532C59.7937 16.1972 59.3345 15.0886 58.5173 14.2712C57.6997 13.4538 56.5912 12.9946 55.4351 12.9946C54.2793 12.9946 53.1705 13.4538 52.3533 14.2712C51.5357 15.0886 51.0765 16.1972 51.0765 17.3532C51.0765 18.5091 51.5357 19.6177 52.3533 20.4352C53.1705 21.2525 54.2793 21.7118 55.4351 21.7118C56.5912 21.7118 57.6997 21.2525 58.5173 20.4352Z" fill="black"/>
</svg>
