<svg width="62" height="51" viewBox="0 0 62 51" fill="none" xmlns="http://www.w3.org/2000/svg">
<path d="M61.477 6.06047C59.2162 7.06225 56.7876 7.73913 54.2344 8.04508C56.839 6.48555 58.8372 4.01087 59.7794 1.06509C57.3426 2.51091 54.6432 3.56143 51.7705 4.12459C49.4691 1.67699 46.193 0.144531 42.5649 0.144531C35.6012 0.144531 29.9533 5.79242 29.9533 12.7616C29.9533 13.7471 30.067 14.7056 30.2782 15.6316C19.792 15.1036 10.5025 10.0811 4.28059 2.45134C3.19758 4.31953 2.57485 6.48555 2.57485 8.79236C2.57485 13.1677 4.80314 17.0314 8.18484 19.2921C6.11629 19.2244 4.17229 18.6586 2.47196 17.7136V17.8761C2.47196 23.987 6.81754 29.0852 12.59 30.244C11.5286 30.531 10.4158 30.6827 9.26785 30.6827C8.45559 30.6827 7.66229 30.6068 6.89335 30.4606C8.49891 35.4696 13.1558 39.1193 18.6765 39.2168C14.358 42.6012 8.91858 44.6183 3.01076 44.6183C1.99273 44.6183 0.988241 44.5587 0 44.4423C5.58291 48.0243 12.2109 50.1091 19.3317 50.1091C42.5352 50.1091 55.2199 30.8911 55.2199 14.2237C55.2199 13.6821 55.2064 13.1352 55.182 12.5937C57.6458 10.8122 59.7848 8.59471 61.4716 6.06859L61.477 6.06047Z" fill="black"/>
</svg>
